<?xml version="1.0" encoding="utf-8"?>
<!-- Generator: Adobe Illustrator 27.6.1, SVG Export Plug-In . SVG Version: 6.00 Build 0)  -->
<svg version="1.1" id="Layer_1" xmlns:xodm="http://www.corel.com/coreldraw/odm/2003"
	 xmlns="http://www.w3.org/2000/svg" xmlns:xlink="http://www.w3.org/1999/xlink" x="0px" y="0px" viewBox="0 0 4000 4000"
	 style="enable-background:new 0 0 4000 4000;" xml:space="preserve">
<style type="text/css">
	.st0{fill-rule:evenodd;clip-rule:evenodd;fill:#787CFF;}
	.st1{fill-rule:evenodd;clip-rule:evenodd;fill:#FFFFFF;}
</style>
<g>
	<path class="st0" d="M1071.9,219.1h1856.1c471,0,852.8,381.8,852.8,852.8v1856.1c0,471-381.8,852.8-852.8,852.8H1071.9
		c-471,0-852.8-381.8-852.8-852.8V1071.9C219.1,601,601,219.1,1071.9,219.1z"/>
	<path class="st1" d="M2504.4,1071.8l206.6,155.5c84.8,63.8,102.2,184.3,38.2,269.3l-923.5,1227.2l-447.1,230
		c-39.9,20.5-85,16.6-120.8-10.3c-35.8-26.9-52-69.2-43.3-113.2l97.1-493.1L2235.1,1110C2298.9,1025.2,2419.3,1007.8,2504.4,1071.8
		L2504.4,1071.8z M2173,1459.9l124.9,369l322.7-428.8c10.1-13.5,7.6-33.9-6.1-44.2l-206.6-155.5c-13.5-10.1-33.9-7.6-44.2,6.1
		L2173,1459.9z M2169.3,1999.7l-124.9-369l-217.8,289.4l124.9,369L2169.3,1999.7z M1823,2459.9l-124.9-369l-209.6,278.6l257,193.4
		L1823,2459.9L1823,2459.9z M1609.3,2661.7l-177.9-133.9l-45.4,245.6L1609.3,2661.7L1609.3,2661.7z"/>
</g>
</svg>
